<svg xmlns="http://www.w3.org/2000/svg">
  <symbol id="dumbbell" viewBox="0 0 24 24"><path d="M17.596 12.768a2 2 0 1 0 2.829-2.829l-1.768-1.767a2 2 0 0 0 2.828-2.829l-2.828-2.828a2 2 0 0 0-2.829 2.828l-1.767-1.768a2 2 0 1 0-2.829 2.829z"/><path d="m2.5 21.5 1.4-1.4M20.1 3.9l1.4-1.4"/><path d="M5.343 21.485a2 2 0 1 0 2.829-2.828l1.767 1.768a2 2 0 1 0 2.829-2.829l-6.364-6.364a2 2 0 1 0-2.829 2.829l1.768 1.767a2 2 0 0 0-2.828 2.829z"/><path d="m9.6 14.4 4.8-4.8"/></symbol>
  <symbol id="flame" viewBox="0 0 24 24"><path d="M12 3q1 4 4 6.5t3 5.5a1 1 0 0 1-14 0 5 5 0 0 1 1-3 1 1 0 0 0 5 0c0-2-1.5-3-1.5-5q0-2 2.5-4"/></symbol>
  <symbol id="footprints" viewBox="0 0 24 24"><path d="M4 16v-2.38C4 11.5 2.97 10.5 3 8c.03-2.72 1.49-6 4.5-6C9.37 2 10 3.8 10 5.5c0 3.11-2 5.66-2 8.68V16a2 2 0 1 1-4 0Z"/><path d="M20 20v-2.38c0-2.12 1.03-3.12 1-5.62-.03-2.72-1.49-6-4.5-6C14.63 6 14 7.8 14 9.5c0 3.11 2 5.66 2 8.68V20a2 2 0 1 0 4 0Z"/><path d="M16 17h4M4 13h4"/></symbol>
  <symbol id="calendar" viewBox="0 0 24 24"><path d="M8 2v3M16 2v3"/><rect x="3" y="3" width="18" height="18" rx="2"/><path d="M3 9h18M8 13h.01M12 13h.01M16 13h.01M8 17h.01M12 17h.01M16 17h.01"/></symbol>
  <symbol id="chart" viewBox="0 0 24 24"><path d="M5 21v-6M12 21V9M19 21V3"/></symbol>
  <symbol id="diary" viewBox="0 0 24 24"><path d="M2 6h4M2 10h4M2 14h4M2 18h4"/><rect width="16" height="20" x="4" y="2" rx="2"/><path d="M15 2v20M15 7h5M15 12h5M15 17h5"/></symbol>
  <symbol id="apple" viewBox="0 0 24 24"><path d="M12 6.528V3a1 1 0 0 1 1-1"/><path d="M18.237 21A15 15 0 0 0 22 11a6 6 0 0 0-10-4.472A6 6 0 0 0 2 11a15.1 15.1 0 0 0 3.763 10 3 3 0 0 0 3.648.648 5.5 5.5 0 0 1 5.178 0A3 3 0 0 0 18.237 21"/></symbol>
  <symbol id="chevron-left" viewBox="0 0 24 24"><path d="m15 18-6-6 6-6"/></symbol>
  <symbol id="chevron-right" viewBox="0 0 24 24"><path d="m9 18 6-6-6-6"/></symbol>
  <symbol id="plus" viewBox="0 0 24 24"><path d="M5 12h14M12 5v14"/></symbol>
  <symbol id="copy" viewBox="0 0 24 24"><rect width="14" height="14" x="8" y="8" rx="2"/><path d="M4 16c-1.1 0-2-.9-2-2V4c0-1.1.9-2 2-2h10c1.1 0 2 .9 2 2"/></symbol>
  <symbol id="timer" viewBox="0 0 24 24"><path d="M10 2h4M12 14l3-3"/><circle cx="12" cy="14" r="8"/></symbol>
  <symbol id="check" viewBox="0 0 24 24"><circle cx="12" cy="12" r="10"/><path d="m9 12 2 2 4-4"/></symbol>
  <symbol id="utensils" viewBox="0 0 24 24"><path d="M3 2v7c0 1.1.9 2 2 2h4a2 2 0 0 0 2-2V2M7 2v20M21 15V2a5 5 0 0 0-5 5v6c0 1.1.9 2 2 2h3Zm0 0v7"/></symbol>
  <symbol id="ellipsis" viewBox="0 0 24 24"><circle cx="12" cy="12" r="1"/><circle cx="19" cy="12" r="1"/><circle cx="5" cy="12" r="1"/></symbol>
</svg>
